<svg width="46" height="44" viewBox="0 0 46 44" fill="none" xmlns="http://www.w3.org/2000/svg">
<path d="M19.1958 3.7082C20.3932 0.022953 25.6068 0.0229597 26.8042 3.7082L29.2864 11.3475C29.8219 12.9956 31.3577 14.1115 33.0906 14.1115H41.1231C44.998 14.1115 46.6091 19.0699 43.4742 21.3475L36.9758 26.0689C35.5739 27.0875 34.9872 28.8929 35.5227 30.541L38.0049 38.1803C39.2023 41.8656 34.9844 44.9301 31.8495 42.6525L25.3511 37.9311C23.9492 36.9125 22.0508 36.9125 20.6489 37.9311L14.1505 42.6525C11.0156 44.9301 6.79769 41.8656 7.9951 38.1803L10.4773 30.541C11.0128 28.8929 10.4261 27.0875 9.02418 26.0689L2.52578 21.3475C-0.609076 19.0699 1.00203 14.1115 4.87693 14.1115H12.9094C14.6423 14.1115 16.1781 12.9956 16.7136 11.3475L19.1958 3.7082Z" fill="#D9D9D9"/>
</svg>
