<svg width="24" height="24" viewBox="0 0 24 24" fill="none" xmlns="http://www.w3.org/2000/svg">
<path d="M5.84778 8.52342C6.1872 5.38139 8.83969 3 12 3C15.1603 3 17.8128 5.38139 18.1522 8.52342L18.4533 11.3105C18.4832 11.5871 18.4981 11.7255 18.5176 11.8618C18.6507 12.7924 18.9467 13.6922 19.3921 14.52C19.4574 14.6413 19.5275 14.7614 19.6677 15.0018L20.3169 16.1147C21.0299 17.3369 21.3863 17.948 21.1655 18.4222C21.1414 18.4739 21.1129 18.5234 21.0804 18.5703C20.7821 19 20.0746 19 18.6597 19H5.34029C3.92536 19 3.2179 19 2.91957 18.5703C2.88706 18.5234 2.85862 18.4739 2.83455 18.4222C2.61366 17.948 2.97013 17.3369 3.68307 16.1147L4.33228 15.0018C4.47249 14.7614 4.54259 14.6413 4.60787 14.52C5.05327 13.6922 5.3493 12.7924 5.48238 11.8618C5.50188 11.7255 5.51682 11.5871 5.54671 11.3105L5.84778 8.52342Z" fill="#222222" stroke="#222222" stroke-width="1.5"/>
<path d="M9.10222 19.0353C9.27315 19.8858 9.64978 20.6374 10.1737 21.1734C10.6976 21.7094 11.3396 22 12 22C12.6604 22 13.3024 21.7095 13.8263 21.1734C14.3502 20.6374 14.7269 19.8858 14.8978 19.0353" stroke="#222222" stroke-width="1.5" stroke-linecap="round"/>
</svg>
