<svg width="24" height="24" viewBox="0 0 24 24" fill="none" xmlns="http://www.w3.org/2000/svg">
<path d="M4 9.70055C4 7.01328 4 5.66965 4.83483 4.83483C5.66965 4 7.01328 4 9.70055 4H13.5009C16.1882 4 17.5318 4 18.3666 4.83483C19.2015 5.66965 19.2015 7.01328 19.2015 9.70055V16.1874C19.2015 18.7368 19.2015 20.0115 18.3993 20.4013C17.5971 20.7912 16.5948 20.0037 14.5902 18.4286L13.9487 17.9245C12.8215 17.0389 12.2579 16.5961 11.6007 16.5961C10.9435 16.5961 10.3799 17.0389 9.25278 17.9245L8.61123 18.4286C6.60662 20.0037 5.60431 20.7912 4.80216 20.4013C4 20.0115 4 18.7368 4 16.1874V9.70055Z" fill="#33363F" stroke="#33363F" stroke-width="1.5"/>
</svg>
