<svg width="24" height="24" viewBox="0 0 24 24" fill="none" xmlns="http://www.w3.org/2000/svg">
<path d="M14.2258 4.25939H13.4758V4.29679L13.4796 4.33401L14.2258 4.25939ZM14.2258 4.25937H14.9758V4.22197L14.9721 4.18474L14.2258 4.25937ZM14.4317 5.40409L15.079 5.02533V5.02533L14.4317 5.40409ZM15.548 5.86649L15.3581 5.14093L15.548 5.86649ZM16.503 5.20264L16.028 4.62218V4.62218L16.503 5.20264ZM17.0327 4.82434L16.7457 4.1314L16.7457 4.1314L17.0327 4.82434ZM17.8879 4.86699L17.5335 5.52793L17.8879 4.86699ZM18.3774 5.29612L17.8471 5.82645L17.8471 5.82645L18.3774 5.29612ZM19.2039 6.12264L19.7645 5.62437L19.7498 5.60789L19.7342 5.59231L19.2039 6.12264ZM19.2039 6.12265L18.6434 6.62093L18.658 6.6374L18.6736 6.65298L19.2039 6.12265ZM19.633 6.612L18.972 6.96651L18.9721 6.96652L19.633 6.612ZM19.6756 7.46736L18.9827 7.18036L18.9827 7.18036L19.6756 7.46736ZM19.2974 7.99696L18.7169 7.52204L18.7034 7.53856L18.6909 7.55584L19.2974 7.99696ZM19.2974 7.99698L19.8779 8.47191L19.8914 8.45538L19.9039 8.43811L19.2974 7.99698ZM18.6337 8.95173L19.3592 9.1417V9.1417L18.6337 8.95173ZM19.0961 10.0682L18.7174 10.7155L18.7174 10.7155L19.0961 10.0682ZM20.2406 10.274L20.166 11.0202H20.166L20.2406 10.274ZM20.8827 10.381L20.5957 11.0739L20.8827 10.381ZM21.4574 11.016L20.7393 11.2327V11.2327L21.4574 11.016ZM21.4574 13.4838L22.1754 13.7004L22.1754 13.7004L21.4574 13.4838ZM20.8827 14.1188L21.1697 14.8117V14.8117L20.8827 14.1188ZM19.0964 14.4316L19.4751 15.079L19.4751 15.079L19.0964 14.4316ZM18.6339 15.5481L17.9084 15.7381L17.9084 15.7381L18.6339 15.5481ZM19.2976 16.5028L18.7171 16.9777L18.7408 17.0066L18.7673 17.0331L19.2976 16.5028ZM19.2976 16.5028L19.8781 16.0278L19.8544 15.9989L19.8279 15.9724L19.2976 16.5028ZM19.6758 17.0324L18.9829 17.3194L18.9829 17.3194L19.6758 17.0324ZM19.6332 17.8878L20.2941 18.2423L20.2941 18.2423L19.6332 17.8878ZM19.2041 18.3771L18.6738 17.8467L18.6738 17.8467L19.2041 18.3771ZM18.3776 19.2036L18.908 19.7339L18.908 19.7339L18.3776 19.2036ZM17.8881 19.6328L17.5337 18.9718L17.8881 19.6328ZM17.0329 19.6754L17.3199 18.9825L17.3199 18.9825L17.0329 19.6754ZM16.5031 19.297L16.0282 19.8775L16.0282 19.8775L16.5031 19.297ZM15.548 18.6331L15.7378 17.9075L15.548 18.6331ZM14.4318 19.0954L13.7845 18.7166L13.7845 18.7166L14.4318 19.0954ZM14.2259 20.2404L14.9721 20.3151L14.2259 20.2404ZM14.1187 20.8829L14.8116 21.17L14.8116 21.17L14.1187 20.8829ZM13.484 21.4573L13.7008 22.1753H13.7008L13.484 21.4573ZM11.016 21.4574L10.7993 22.1754L10.7993 22.1754L11.016 21.4574ZM10.381 20.8827L11.0739 20.5957L11.0739 20.5957L10.381 20.8827ZM10.274 20.2407L9.5277 20.3153L10.274 20.2407ZM10.0681 19.0961L9.42081 19.4748H9.42081L10.0681 19.0961ZM8.95179 18.6337L8.76187 17.9081L8.76187 17.9081L8.95179 18.6337ZM7.99686 19.2975L8.47179 19.878L8.47179 19.878L7.99686 19.2975ZM7.46708 19.6759L7.75403 20.3688L7.75404 20.3688L7.46708 19.6759ZM6.61185 19.6332L6.96633 18.9723L6.96632 18.9723L6.61185 19.6332ZM6.12239 19.2041L5.59206 19.7344H5.59206L6.12239 19.2041ZM6.12237 19.2041L5.59204 19.7344L6.12237 19.2041ZM5.29599 18.3777L4.76566 18.908H4.76566L5.29599 18.3777ZM4.86675 17.8881L4.20578 18.2425H4.20578L4.86675 17.8881ZM4.8241 17.033L4.13115 16.7461L4.13115 16.7461L4.8241 17.033ZM5.20252 16.5031L5.78299 16.978L5.78299 16.978L5.20252 16.5031ZM5.86646 15.548L6.59202 15.7379H6.59202L5.86646 15.548ZM5.40408 14.4317L5.78286 13.7844L5.78286 13.7844L5.40408 14.4317ZM4.25936 14.2258L4.33399 13.4796L4.29677 13.4758H4.25936V14.2258ZM4.25935 14.2258L4.18472 14.9721L4.22194 14.9758H4.25935V14.2258ZM3.61723 14.1188L3.33015 14.8116L3.33015 14.8116L3.61723 14.1188ZM3.04265 13.4839L2.32465 13.7006H2.32465L3.04265 13.4839ZM3.04267 11.0159L3.76067 11.2326L3.76067 11.2326L3.04267 11.0159ZM3.61717 10.3811L3.33004 9.68821H3.33004L3.61717 10.3811ZM4.25943 10.274L4.33406 11.0202L4.34982 11.0187L4.3655 11.0164L4.25943 10.274ZM4.25944 10.274L4.18481 9.52768L4.16905 9.52926L4.15338 9.5315L4.25944 10.274ZM5.40442 10.068L5.02557 9.42075L5.02557 9.42075L5.40442 10.068ZM5.86673 8.9519L5.14115 9.14172L5.86673 8.9519ZM5.20272 7.99666L5.78318 7.52173L5.20272 7.99666ZM4.8243 7.46676L5.51726 7.17986V7.17986L4.8243 7.46676ZM4.86695 6.61166L4.20598 6.25723L4.20598 6.25724L4.86695 6.61166ZM6.61201 4.86655L6.96652 5.52747H6.96652L6.61201 4.86655ZM7.46735 4.82389L7.18036 5.5168L7.46735 4.82389ZM7.99704 5.20219L7.52212 5.78265L7.52212 5.78265L7.99704 5.20219ZM8.95168 5.86587L8.76164 6.5914L8.95168 5.86587ZM10.0683 5.40337L10.7157 5.78201V5.78201L10.0683 5.40337ZM10.274 4.25918L11.0203 4.3338V4.3338L10.274 4.25918ZM10.381 3.61736L11.0739 3.90434V3.90434L10.381 3.61736ZM11.0161 3.04261L10.7995 2.32457L10.7995 2.32457L11.0161 3.04261ZM13.4839 3.04266L13.7006 2.32465L13.7006 2.32465L13.4839 3.04266ZM14.1188 3.61722L13.4259 3.9043V3.9043L14.1188 3.61722ZM14.9758 4.25939V4.25937H13.4758V4.25939H14.9758ZM15.079 5.02533C15.0962 5.05475 15.0778 5.04101 15.0516 4.87994C15.0265 4.72516 15.005 4.51329 14.9721 4.18476L13.4796 4.33401C13.5105 4.64304 13.5368 4.90935 13.571 5.12044C13.6043 5.32524 13.6569 5.56507 13.7844 5.78285L15.079 5.02533ZM15.3581 5.14093C15.2497 5.16931 15.1356 5.12206 15.079 5.02533L13.7844 5.78285C14.1806 6.45998 14.979 6.79069 15.7379 6.59204L15.3581 5.14093ZM16.028 4.62218C15.7725 4.83124 15.6075 4.96582 15.4803 5.05749C15.3479 5.15288 15.3251 5.14956 15.3581 5.14093L15.7379 6.59204C15.982 6.52815 16.1888 6.39578 16.3571 6.27449C16.5306 6.14948 16.7375 5.97977 16.9779 5.78311L16.028 4.62218ZM16.7457 4.1314C16.4816 4.24078 16.2496 4.44091 16.028 4.62218L16.9779 5.78311C17.115 5.67095 17.1959 5.60505 17.2591 5.55859C17.3179 5.51537 17.3299 5.51303 17.3196 5.51727L16.7457 4.1314ZM18.2424 4.20605C17.78 3.95801 17.2306 3.93061 16.7457 4.1314L17.3196 5.51727C17.3889 5.48858 17.4674 5.4925 17.5335 5.52793L18.2424 4.20605ZM18.9077 4.76579C18.7053 4.56338 18.4943 4.34116 18.2424 4.20605L17.5335 5.52793C17.5237 5.52269 17.5353 5.52622 17.5896 5.57507C17.6479 5.62759 17.7218 5.7012 17.8471 5.82645L18.9077 4.76579ZM18.9077 4.7658L18.9077 4.76579L17.8471 5.82645L17.8471 5.82646L18.9077 4.7658ZM19.7342 5.59231L18.9077 4.7658L17.8471 5.82646L18.6736 6.65297L19.7342 5.59231ZM19.7645 5.62438L19.7645 5.62437L18.6433 6.62091L18.6434 6.62093L19.7645 5.62438ZM20.2939 6.25748C20.1588 6.00562 19.9366 5.79469 19.7342 5.59232L18.6736 6.65298C18.7988 6.77821 18.8724 6.85214 18.9249 6.91042C18.9738 6.96463 18.9773 6.97628 18.972 6.96651L20.2939 6.25748ZM20.3685 7.75436C20.5694 7.26945 20.542 6.71999 20.2939 6.25747L18.9721 6.96652C19.0075 7.03259 19.0114 7.11109 18.9827 7.18036L20.3685 7.75436ZM19.8779 8.47189C20.0591 8.2504 20.2592 8.0184 20.3685 7.75436L18.9827 7.18036C18.987 7.17012 18.9846 7.18207 18.9414 7.24087C18.895 7.30409 18.8291 7.38498 18.7169 7.52204L19.8779 8.47189ZM19.9039 8.43811L19.904 8.43809L18.6909 7.55584L18.6908 7.55585L19.9039 8.43811ZM19.3592 9.1417C19.3506 9.17467 19.3473 9.15193 19.4426 9.01956C19.5343 8.89237 19.6688 8.72738 19.8779 8.47191L18.7169 7.52205C18.5203 7.76236 18.3506 7.96921 18.2256 8.14268C18.1044 8.31098 17.972 8.51772 17.9081 8.76176L19.3592 9.1417ZM19.4748 9.42081C19.3781 9.36421 19.3308 9.25013 19.3592 9.1417L17.9081 8.76176C17.7094 9.5208 18.0401 10.3193 18.7174 10.7155L19.4748 9.42081ZM20.3153 9.52769C19.9868 9.49484 19.775 9.47332 19.6202 9.44818C19.4591 9.42202 19.4454 9.4036 19.4748 9.42081L18.7174 10.7155C18.9352 10.8429 19.1749 10.8955 19.3797 10.9288C19.5908 10.9631 19.857 10.9893 20.166 11.0202L20.3153 9.52769ZM21.1698 9.68815C20.9057 9.57874 20.6001 9.55618 20.3153 9.52769L20.166 11.0202C20.3423 11.0379 20.4461 11.0485 20.5237 11.0603C20.5958 11.0714 20.6059 11.0782 20.5957 11.0739L21.1698 9.68815ZM22.1754 10.7993C22.0237 10.2969 21.6546 9.88902 21.1698 9.68815L20.5957 11.0739C20.6649 11.1026 20.7177 11.1609 20.7393 11.2327L22.1754 10.7993ZM22.25 11.6655C22.25 11.3793 22.258 11.0729 22.1754 10.7993L20.7393 11.2327C20.7361 11.2221 20.7419 11.2328 20.7457 11.3057C20.7498 11.384 20.75 11.4884 20.75 11.6655H22.25ZM22.25 12.8344V11.6655H20.75V12.8344H22.25ZM22.1754 13.7004C22.258 13.4268 22.25 13.1206 22.25 12.8344H20.75C20.75 13.0115 20.7498 13.1158 20.7457 13.1941C20.7419 13.267 20.7361 13.2777 20.7393 13.2671L22.1754 13.7004ZM21.1697 14.8117C21.6546 14.6108 22.0238 14.2029 22.1754 13.7004L20.7393 13.2671C20.7177 13.3389 20.6649 13.3972 20.5957 13.4259L21.1697 14.8117ZM20.3154 14.9721C20.6002 14.9436 20.9057 14.9211 21.1697 14.8117L20.5957 13.4259C20.6059 13.4216 20.5958 13.4284 20.5237 13.4395C20.4461 13.4513 20.3423 13.4619 20.1661 13.4796L20.3154 14.9721ZM19.4751 15.079C19.4457 15.0962 19.4594 15.0778 19.6204 15.0516C19.7752 15.0265 19.987 15.005 20.3154 14.9721L20.1661 13.4796C19.8572 13.5104 19.591 13.5367 19.3799 13.571C19.1752 13.6043 18.9354 13.6569 18.7177 13.7842L19.4751 15.079ZM19.3595 15.3581C19.3311 15.2497 19.3783 15.1356 19.4751 15.079L18.7177 13.7842C18.0404 14.1804 17.7096 14.979 17.9084 15.7381L19.3595 15.3581ZM19.8781 16.0278C19.6691 15.7724 19.5345 15.6074 19.4429 15.4802C19.3475 15.3479 19.3508 15.3251 19.3595 15.3581L17.9084 15.7381C17.9723 15.9821 18.1046 16.1888 18.2259 16.3571C18.3509 16.5306 18.5205 16.7374 18.7171 16.9777L19.8781 16.0278ZM19.8279 15.9724L19.8279 15.9724L18.7673 17.0331L18.7673 17.0331L19.8279 15.9724ZM20.3687 16.7453C20.2594 16.4813 20.0593 16.2493 19.8781 16.0278L18.7171 16.9777C18.8293 17.1148 18.8952 17.1956 18.9416 17.2589C18.9848 17.3177 18.9872 17.3296 18.9829 17.3194L20.3687 16.7453ZM20.2941 18.2423C20.5422 17.7798 20.5696 17.2303 20.3687 16.7453L18.9829 17.3194C19.0116 17.3886 19.0077 17.4671 18.9723 17.5332L20.2941 18.2423ZM19.7345 18.9074C19.9368 18.705 20.159 18.4941 20.2941 18.2423L18.9723 17.5332C18.9775 17.5235 18.974 17.5351 18.9251 17.5893C18.8726 17.6476 18.799 17.7215 18.6738 17.8467L19.7345 18.9074ZM18.908 19.7339L19.7345 18.9074L18.6738 17.8467L17.8473 18.6732L18.908 19.7339ZM18.908 19.7339L18.908 19.7339L17.8473 18.6732L17.8473 18.6732L18.908 19.7339ZM18.2425 20.2937C18.4945 20.1586 18.7055 19.9363 18.908 19.7339L17.8473 18.6732C17.722 18.7985 17.6481 18.8721 17.5898 18.9247C17.5355 18.9735 17.5239 18.977 17.5337 18.9718L18.2425 20.2937ZM16.746 20.3684C17.2308 20.5691 17.7801 20.5417 18.2425 20.2937L17.5337 18.9718C17.4676 19.0072 17.3891 19.0111 17.3199 18.9825L16.746 20.3684ZM16.0282 19.8775C16.2498 20.0588 16.4819 20.259 16.746 20.3684L17.3199 18.9825C17.3301 18.9867 17.3182 18.9844 17.2593 18.9411C17.1961 18.8947 17.1152 18.8288 16.978 18.7166L16.0282 19.8775ZM15.3581 19.3587C15.3251 19.35 15.3479 19.3467 15.4803 19.4421C15.6075 19.5338 15.7726 19.6684 16.0282 19.8775L16.978 18.7166C16.7376 18.5199 16.5307 18.3501 16.3572 18.2251C16.1888 18.1038 15.982 17.9714 15.7378 17.9075L15.3581 19.3587ZM15.0791 19.4742C15.1357 19.3775 15.2497 19.3303 15.3581 19.3587L15.7378 17.9075C14.979 17.709 14.1807 18.0396 13.7845 18.7166L15.0791 19.4742ZM14.9721 20.3151C15.005 19.9864 15.0265 19.7745 15.0517 19.6197C15.0779 19.4586 15.0963 19.4448 15.0791 19.4742L13.7845 18.7166C13.657 18.9344 13.6044 19.1743 13.5711 19.3792C13.5368 19.5903 13.5105 19.8567 13.4796 20.1658L14.9721 20.3151ZM14.8116 21.17C14.9211 20.9058 14.9436 20.6001 14.9721 20.3151L13.4796 20.1658C13.4619 20.3422 13.4513 20.446 13.4395 20.5237C13.4284 20.5959 13.4216 20.606 13.4259 20.5957L14.8116 21.17ZM13.7008 22.1753C14.203 22.0236 14.6107 21.6547 14.8116 21.17L13.4259 20.5957C13.3972 20.665 13.3389 20.7177 13.2672 20.7393L13.7008 22.1753ZM12.8341 22.25C13.1205 22.25 13.427 22.258 13.7008 22.1753L13.2672 20.7393C13.2778 20.7361 13.2671 20.7419 13.1941 20.7457C13.1157 20.7498 13.0113 20.75 12.8341 20.75V22.25ZM11.6655 22.25H12.8341V20.75H11.6655V22.25ZM10.7993 22.1754C11.0729 22.258 11.3793 22.25 11.6655 22.25V20.75C11.4884 20.75 11.384 20.7498 11.3057 20.7457C11.2328 20.7419 11.2221 20.7361 11.2327 20.7393L10.7993 22.1754ZM9.68814 21.1698C9.88901 21.6546 10.2969 22.0237 10.7993 22.1754L11.2327 20.7393C11.1609 20.7177 11.1026 20.6649 11.0739 20.5957L9.68814 21.1698ZM9.5277 20.3153C9.55618 20.6001 9.57874 20.9057 9.68815 21.1698L11.0739 20.5957C11.0782 20.6059 11.0714 20.5958 11.0603 20.5237C11.0485 20.4461 11.0379 20.3423 11.0203 20.1661L9.5277 20.3153ZM9.42081 19.4748C9.40359 19.4454 9.42202 19.4592 9.44818 19.6202C9.47332 19.775 9.49485 19.9868 9.5277 20.3153L11.0203 20.1661C10.9894 19.8571 10.9631 19.5908 10.9288 19.3797C10.8955 19.1749 10.8429 18.9351 10.7155 18.7173L9.42081 19.4748ZM9.14172 19.3592C9.25014 19.3309 9.36421 19.3781 9.42081 19.4748L10.7155 18.7173C10.3193 18.0402 9.52085 17.7095 8.76187 17.9081L9.14172 19.3592ZM8.47179 19.878C8.72731 19.6689 8.89234 19.5343 9.01956 19.4427C9.15195 19.3473 9.1747 19.3506 9.14172 19.3592L8.76187 17.9081C8.51778 17.972 8.311 18.1044 8.14268 18.2257C7.96918 18.3507 7.76229 18.5204 7.52193 18.7171L8.47179 19.878ZM7.75404 20.3688C8.01815 20.2594 8.25021 20.0593 8.47179 19.878L7.52193 18.7171C7.38483 18.8292 7.30391 18.8951 7.24067 18.9416C7.18184 18.9848 7.16989 18.9872 7.18013 18.9829L7.75404 20.3688ZM6.25738 20.2942C6.71984 20.5422 7.26919 20.5696 7.75403 20.3688L7.18014 18.9829C7.11087 19.0116 7.03239 19.0077 6.96633 18.9723L6.25738 20.2942ZM5.59206 19.7344C5.79447 19.9368 6.00546 20.1591 6.25738 20.2942L6.96632 18.9723C6.97609 18.9775 6.96444 18.974 6.91021 18.9251C6.85192 18.8726 6.77797 18.799 6.65272 18.6737L5.59206 19.7344ZM5.59204 19.7344L5.59206 19.7344L6.65272 18.6737L6.6527 18.6737L5.59204 19.7344ZM4.76566 18.908L5.59204 19.7344L6.6527 18.6737L5.82632 17.8473L4.76566 18.908ZM4.20578 18.2425C4.34091 18.4945 4.56319 18.7055 4.76566 18.908L5.82632 17.8473C5.70104 17.7221 5.6274 17.6481 5.57487 17.5898C5.526 17.5355 5.52248 17.5239 5.52771 17.5337L4.20578 18.2425ZM4.13115 16.7461C3.93042 17.2308 3.95782 17.7801 4.20578 18.2425L5.52771 17.5337C5.49229 17.4676 5.48838 17.3891 5.51705 17.3199L4.13115 16.7461ZM4.62205 16.0281C4.44072 16.2498 4.24053 16.4819 4.13115 16.7461L5.51705 17.3199C5.51281 17.3301 5.51515 17.3182 5.55839 17.2593C5.60487 17.1961 5.67078 17.1151 5.78299 16.978L4.62205 16.0281ZM5.14089 15.3581C5.14953 15.3251 5.15285 15.3479 5.05744 15.4803C4.96576 15.6075 4.83115 15.7726 4.62205 16.0281L5.78299 16.978C5.97968 16.7376 6.14941 16.5307 6.27444 16.3571C6.39574 16.1888 6.52813 15.982 6.59202 15.7379L5.14089 15.3581ZM5.0253 15.079C5.12203 15.1356 5.16927 15.2497 5.14089 15.3581L6.59202 15.7379C6.79064 14.9789 6.45994 14.1806 5.78286 13.7844L5.0253 15.079ZM4.18473 14.9721C4.51327 15.005 4.72513 15.0265 4.87991 15.0516C5.04098 15.0778 5.05472 15.0962 5.0253 15.079L5.78286 13.7844C5.56507 13.6569 5.32523 13.6043 5.12043 13.571C4.90933 13.5368 4.64302 13.5105 4.33399 13.4796L4.18473 14.9721ZM4.25935 14.9758H4.25936V13.4758H4.25935V14.9758ZM3.33015 14.8116C3.59425 14.9211 3.89987 14.9436 4.18472 14.9721L4.33398 13.4796C4.15771 13.4619 4.0539 13.4513 3.97634 13.4395C3.90418 13.4284 3.89407 13.4216 3.90431 13.4259L3.33015 14.8116ZM2.32465 13.7006C2.47628 14.203 2.84535 14.6108 3.33015 14.8116L3.90431 13.4259C3.83505 13.3972 3.78232 13.3389 3.76066 13.2672L2.32465 13.7006ZM2.25 12.8343C2.25 13.1205 2.24204 13.4269 2.32465 13.7006L3.76066 13.2672C3.76387 13.2778 3.75811 13.267 3.75432 13.1941C3.75024 13.1158 3.75 13.0114 3.75 12.8343H2.25ZM2.25 11.6656V12.8343H3.75V11.6656H2.25ZM2.32468 10.7991C2.24204 11.0729 2.25 11.3793 2.25 11.6656H3.75C3.75 11.4884 3.75024 11.3841 3.75432 11.3057C3.75812 11.2328 3.76387 11.222 3.76067 11.2326L2.32468 10.7991ZM3.33004 9.68821C2.84533 9.88908 2.47632 10.2968 2.32468 10.7991L3.76067 11.2326C3.78233 11.1609 3.83505 11.1026 3.90429 11.0739L3.33004 9.68821ZM4.1848 9.52768C3.89989 9.55617 3.5942 9.57874 3.33004 9.68821L3.90429 11.0739C3.89405 11.0782 3.90416 11.0714 3.97634 11.0604C4.05392 11.0485 4.15776 11.0379 4.33406 11.0202L4.1848 9.52768ZM4.15338 9.5315L4.15337 9.5315L4.3655 11.0164L4.36551 11.0164L4.15338 9.5315ZM5.02557 9.42075C5.055 9.40353 5.04126 9.42197 4.88015 9.44814C4.72534 9.47329 4.51342 9.49482 4.18481 9.52768L4.33407 11.0202C4.64317 10.9893 4.90954 10.963 5.12069 10.9287C5.32554 10.8954 5.56543 10.8428 5.78326 10.7153L5.02557 9.42075ZM5.14115 9.14172C5.16951 9.25012 5.12228 9.36415 5.02557 9.42075L5.78326 10.7153C6.46019 10.3191 6.79083 9.5209 6.59232 8.76208L5.14115 9.14172ZM4.62225 8.47158C4.83138 8.72719 4.966 8.89226 5.05769 9.01952C5.1531 9.15195 5.14978 9.1747 5.14115 9.14172L6.59232 8.76208C6.52844 8.5179 6.39603 8.31105 6.27471 8.14267C6.14966 7.96911 5.9799 7.76216 5.78318 7.52173L4.62225 8.47158ZM4.13134 7.75365C4.24073 8.01785 4.44093 8.24997 4.62225 8.47158L5.78318 7.52173C5.67098 7.38459 5.60507 7.30366 5.5586 7.24041C5.51536 7.18157 5.51302 7.16962 5.51726 7.17986L4.13134 7.75365ZM4.20598 6.25724C3.95803 6.71963 3.93064 7.26888 4.13134 7.75365L5.51726 7.17986C5.48859 7.11061 5.4925 7.03214 5.52792 6.96608L4.20598 6.25724ZM4.76588 5.59172C4.56341 5.79419 4.34111 6.00523 4.20598 6.25723L5.52792 6.96609C5.52268 6.97585 5.5262 6.96419 5.57508 6.90995C5.62761 6.85164 5.70125 6.77767 5.82654 6.65238L4.76588 5.59172ZM5.5923 4.7653L4.76588 5.59172L5.82654 6.65238L6.65296 5.82596L5.5923 4.7653ZM6.2575 4.20562C6.00563 4.34072 5.79468 4.56292 5.5923 4.7653L6.65296 5.82596C6.77819 5.70073 6.85213 5.62712 6.91041 5.57461C6.96463 5.52576 6.97629 5.52223 6.96652 5.52747L6.2575 4.20562ZM7.75434 4.13097C7.26944 3.93013 6.72 3.95754 6.2575 4.20562L6.96652 5.52747C7.0326 5.49203 7.11109 5.48811 7.18036 5.5168L7.75434 4.13097ZM8.47197 4.62172C8.25043 4.44046 8.0184 4.24033 7.75434 4.13097L7.18036 5.5168C7.17011 5.51256 7.18206 5.51491 7.24089 5.55813C7.30412 5.6046 7.38503 5.67049 7.52212 5.78265L8.47197 4.62172ZM9.14172 5.14035C9.17469 5.14898 9.15195 5.15229 9.01959 5.05692C8.89241 4.96527 8.72743 4.83072 8.47197 4.62172L7.52212 5.78265C7.76241 5.97926 7.96923 6.14891 8.14268 6.27389C8.31094 6.39514 8.51765 6.52749 8.76164 6.5914L9.14172 5.14035ZM9.42087 5.02472C9.36427 5.12149 9.25017 5.16875 9.14172 5.14035L8.76164 6.5914C9.52079 6.79024 10.3195 6.45941 10.7157 5.78201L9.42087 5.02472ZM9.52771 4.18455C9.49487 4.51293 9.47336 4.72469 9.44823 4.8794C9.42208 5.04039 9.40366 5.05413 9.42087 5.02472L10.7157 5.78201C10.843 5.5643 10.8956 5.32458 10.9288 5.11987C10.9631 4.90887 10.9894 4.64269 11.0203 4.3338L9.52771 4.18455ZM9.68807 3.33038C9.57874 3.59437 9.55618 3.89983 9.52771 4.18455L11.0203 4.3338C11.0379 4.15763 11.0485 4.05387 11.0603 3.97634C11.0714 3.90421 11.0782 3.89411 11.0739 3.90434L9.68807 3.33038ZM10.7995 2.32457C10.2969 2.47618 9.88894 2.84539 9.68807 3.33038L11.0739 3.90434C11.1026 3.83506 11.1609 3.78231 11.2327 3.76065L10.7995 2.32457ZM11.6654 2.25C11.3792 2.25 11.073 2.24205 10.7995 2.32457L11.2327 3.76065C11.2221 3.76385 11.2328 3.75811 11.3057 3.75431C11.384 3.75024 11.4883 3.75 11.6654 3.75V2.25ZM12.8343 2.25H11.6654V3.75H12.8343V2.25ZM13.7006 2.32465C13.4269 2.24204 13.1205 2.25 12.8343 2.25V3.75C13.0114 3.75 13.1158 3.75024 13.1941 3.75432C13.267 3.75811 13.2778 3.76387 13.2672 3.76066L13.7006 2.32465ZM14.8116 3.33013C14.6108 2.84535 14.203 2.47628 13.7006 2.32465L13.2672 3.76066C13.3389 3.78233 13.3972 3.83505 13.4259 3.9043L14.8116 3.33013ZM14.9721 4.18474C14.9436 3.89987 14.9211 3.59424 14.8116 3.33013L13.4259 3.9043C13.4216 3.89407 13.4284 3.90417 13.4395 3.97634C13.4513 4.05391 13.4619 4.15773 13.4796 4.334L14.9721 4.18474ZM15.2 12.25C15.2 13.8792 13.8792 15.2 12.25 15.2V16.7C14.7076 16.7 16.7 14.7076 16.7 12.25H15.2ZM12.25 9.29995C13.8792 9.29995 15.2 10.6207 15.2 12.25H16.7C16.7 9.79229 14.7076 7.79995 12.25 7.79995V9.29995ZM9.29995 12.25C9.29995 10.6207 10.6207 9.29995 12.25 9.29995V7.79995C9.79229 7.79995 7.79995 9.79229 7.79995 12.25H9.29995ZM12.25 15.2C10.6207 15.2 9.29995 13.8792 9.29995 12.25H7.79995C7.79995 14.7076 9.79229 16.7 12.25 16.7V15.2Z" fill="#222222"/>
</svg>
