<svg width="24" height="24" viewBox="0 0 24 24" fill="none" xmlns="http://www.w3.org/2000/svg">
<path d="M17 12L12.2622 20.528C12.1463 20.7367 12.0883 20.8411 12 20.8411C11.9117 20.8411 11.8537 20.7367 11.7378 20.528L7 12" stroke="#33363F" stroke-width="1.5" stroke-linecap="round"/>
<path d="M6.23276 11.2586L6.03026 11.9807L6.03026 11.9807L6.23276 11.2586ZM17.7672 11.2586L17.5647 10.5364L17.5647 10.5364L17.7672 11.2586ZM17.5433 7.01256L16.8427 7.28041L16.8427 7.28041L17.5433 7.01256ZM14.2961 3.49478L14.6032 2.81052L14.6032 2.81052L14.2961 3.49478ZM9.7039 3.49478L9.39685 2.81052L9.39685 2.81052L9.7039 3.49478ZM7.75736 4.90381L7.20626 4.3951L7.20626 4.3951L7.75736 4.90381ZM6.45672 7.01256L5.75618 6.74471L5.75618 6.74471L6.45672 7.01256ZM17.9061 7.81233L17.5519 8.47342L17.9061 7.81233ZM17.741 7.61089L18.4632 7.40842L17.741 7.61089ZM17.7885 7.73566L17.2035 8.20501L17.7885 7.73566ZM6.09386 7.81233L6.44806 8.47342L6.09386 7.81233ZM6.21154 7.73566L5.62655 7.26632L6.21154 7.73566ZM5.73966 7.15124C4.898 7.60219 4.25 8.47192 4.25 9.56006H5.75C5.75 9.10867 6.01519 8.70535 6.44806 8.47342L5.73966 7.15124ZM4.25 9.56006C4.25 10.6386 4.92009 11.6694 6.03026 11.9807L6.43525 10.5364C6.04283 10.4264 5.75 10.0421 5.75 9.56006H4.25ZM6.03026 11.9807C7.77931 12.4711 9.8235 12.75 12 12.75V11.25C9.94671 11.25 8.03991 10.9864 6.43525 10.5364L6.03026 11.9807ZM12 12.75C14.1765 12.75 16.2207 12.4711 17.9697 11.9807L17.5647 10.5364C15.9601 10.9864 14.0533 11.25 12 11.25V12.75ZM17.9697 11.9807C19.0799 11.6694 19.75 10.6386 19.75 9.56006H18.25C18.25 10.0421 17.9572 10.4264 17.5647 10.5364L17.9697 11.9807ZM19.75 9.56006C19.75 8.47192 19.102 7.60219 18.2603 7.15124L17.5519 8.47342C17.9848 8.70535 18.25 9.10867 18.25 9.56006H19.75ZM18.4632 7.40842C18.4002 7.18399 18.3271 6.96248 18.2438 6.7447L16.8427 7.28041C16.9095 7.45501 16.9683 7.63288 17.0189 7.81337L18.4632 7.40842ZM18.2438 6.74471C17.9092 5.86957 17.4174 5.0707 16.7937 4.3951L15.6915 5.41252C16.1822 5.94407 16.5743 6.57832 16.8427 7.28041L18.2438 6.74471ZM16.7937 4.3951C16.17 3.71937 15.4262 3.17985 14.6032 2.81052L13.989 4.17905C14.6219 4.46302 15.201 4.88108 15.6915 5.41252L16.7937 4.3951ZM14.6032 2.81052C13.7799 2.44109 12.8951 2.25 12 2.25V3.75C12.6807 3.75 13.3564 3.89516 13.989 4.17905L14.6032 2.81052ZM12 2.25C11.1049 2.25 10.2201 2.44109 9.39685 2.81052L10.011 4.17905C10.6436 3.89516 11.3193 3.75 12 3.75V2.25ZM9.39685 2.81052C8.57378 3.17985 7.83 3.71937 7.20626 4.3951L8.30846 5.41252C8.79902 4.88108 9.37811 4.46302 10.011 4.17905L9.39685 2.81052ZM7.20626 4.3951C6.58262 5.0707 6.09079 5.86957 5.75618 6.74471L7.15726 7.28041C7.42571 6.57832 7.81779 5.94408 8.30846 5.41252L7.20626 4.3951ZM5.75618 6.74471C5.67292 6.96248 5.59976 7.18399 5.53684 7.40842L6.98114 7.81337C7.03175 7.63288 7.0905 7.45501 7.15726 7.28041L5.75618 6.74471ZM18.2603 7.15124C18.2427 7.14178 18.233 7.13657 18.2255 7.13244C18.218 7.1283 18.2206 7.12955 18.2279 7.13412C18.2399 7.14164 18.3072 7.18379 18.3735 7.26632L17.2035 8.20501C17.2888 8.31143 17.3821 8.37432 17.4318 8.4054C17.4771 8.43381 17.5282 8.4607 17.5519 8.47342L18.2603 7.15124ZM17.0189 7.81337C17.0254 7.83671 17.0405 7.89213 17.0587 7.94301C17.0798 8.00166 17.121 8.10222 17.2035 8.20501L18.3735 7.26632C18.4368 7.34522 18.4637 7.41703 18.4705 7.43608C18.4739 7.44563 18.475 7.44989 18.473 7.44294C18.4709 7.43596 18.4683 7.42668 18.4632 7.40842L17.0189 7.81337ZM6.44806 8.47342C6.47182 8.4607 6.52285 8.43381 6.56822 8.4054C6.61785 8.37432 6.71115 8.31143 6.79653 8.20501L5.62655 7.26632C5.69276 7.18379 5.76006 7.14164 5.77207 7.13412C5.77937 7.12955 5.78199 7.1283 5.77448 7.13244C5.76702 7.13657 5.75733 7.14178 5.73966 7.15124L6.44806 8.47342ZM5.53684 7.40842C5.53172 7.42668 5.5291 7.43596 5.52704 7.44294C5.52499 7.44989 5.52608 7.44563 5.52951 7.43608C5.53635 7.41703 5.56325 7.34522 5.62655 7.26632L6.79653 8.20501C6.879 8.10222 6.92019 8.00166 6.94125 7.94301C6.95952 7.89213 6.9746 7.83671 6.98114 7.81337L5.53684 7.40842Z" fill="#33363F"/>
<path d="M17.7321 7.84497C16.8643 8.0721 15.5 8.50012 14 8.50012" stroke="#33363F" stroke-width="1.5" stroke-linecap="round"/>
</svg>
