<svg width="24" height="24" viewBox="0 0 24 24" fill="none" xmlns="http://www.w3.org/2000/svg">
<circle cx="12.4615" cy="6.25" r="3.5" stroke="#222222" stroke-width="1.5" stroke-linecap="round"/>
<path d="M15.0022 4.14583C15.2783 3.66767 15.6899 3.2821 16.1851 3.0379C16.6803 2.79369 17.2368 2.70181 17.7842 2.77388C18.3316 2.84595 18.8454 3.07873 19.2605 3.44278C19.6756 3.80683 19.9735 4.2858 20.1164 4.81913C20.2593 5.35246 20.2408 5.91618 20.0634 6.43902C19.8859 6.96186 19.5573 7.42032 19.1193 7.75645C18.6813 8.09257 18.1534 8.29124 17.6024 8.32736C17.0515 8.36347 16.5022 8.23539 16.024 7.95932" stroke="#222222" stroke-width="1.5"/>
<path d="M9.92091 4.14583C9.64484 3.66767 9.23318 3.2821 8.73798 3.0379C8.24278 2.79369 7.68629 2.70181 7.13887 2.77388C6.59145 2.84595 6.0777 3.07873 5.66258 3.44278C5.24746 3.80683 4.94962 4.2858 4.80671 4.81913C4.66381 5.35246 4.68226 5.91618 4.85974 6.43902C5.03722 6.96186 5.36576 7.42032 5.8038 7.75645C6.24184 8.09257 6.76971 8.29124 7.32067 8.32736C7.87163 8.36347 8.42092 8.23539 8.89909 7.95932" stroke="#222222" stroke-width="1.5"/>
<path d="M12.4616 12.625C18.5919 12.625 19.899 17.8867 20.1777 20.1305C20.2458 20.6786 19.8055 21.125 19.2533 21.125H5.66992C5.11764 21.125 4.67737 20.6786 4.74545 20.1305C5.02414 17.8867 6.33124 12.625 12.4616 12.625Z" stroke="#222222" stroke-width="1.5" stroke-linecap="round"/>
<path d="M22.9023 17.2035L23.6356 17.0457V17.0457L22.9023 17.2035ZM14.0016 12.7469L13.4477 12.2412L12.5171 13.2605L13.8786 13.4867L14.0016 12.7469ZM19.8017 18.2918L19.0813 18.5003L19.238 19.0418H19.8017V18.2918ZM17.4199 11.9585C18.964 11.9585 20.0217 12.7694 20.7796 13.8832C21.5511 15.0171 21.9637 16.4066 22.1691 17.3613L23.6356 17.0457C23.4136 16.0146 22.9501 14.4066 22.0198 13.0394C21.0759 11.6522 19.6061 10.4585 17.4199 10.4585V11.9585ZM14.5555 13.2526C15.2578 12.4833 16.1737 11.9585 17.4199 11.9585V10.4585C15.6818 10.4585 14.3831 11.2167 13.4477 12.2412L14.5555 13.2526ZM13.8786 13.4867C17.1148 14.0245 18.4854 16.4406 19.0813 18.5003L20.5222 18.0834C19.8527 15.7694 18.1848 12.6818 14.1245 12.007L13.8786 13.4867ZM21.9815 17.5418H19.8017V19.0418H21.9815V17.5418ZM22.1691 17.3613C22.1796 17.41 22.1681 17.445 22.1418 17.4755C22.1123 17.5098 22.0586 17.5418 21.9815 17.5418V19.0418C23.0011 19.0418 23.8708 18.1386 23.6356 17.0457L22.1691 17.3613Z" fill="#222222"/>
<path d="M10.9215 12.7469L11.0444 13.4867L12.406 13.2605L11.4753 12.2412L10.9215 12.7469ZM2.02069 17.2035L1.28748 17.0457L2.02069 17.2035ZM5.12134 18.2918V19.0418H5.68511L5.84179 18.5003L5.12134 18.2918ZM7.50319 11.9585C8.74941 11.9585 9.66522 12.4833 10.3676 13.2526L11.4753 12.2412C10.54 11.2167 9.24128 10.4585 7.50319 10.4585V11.9585ZM2.7539 17.3613C2.95938 16.4066 3.37192 15.0171 4.14343 13.8832C4.90136 12.7694 5.95911 11.9585 7.50319 11.9585V10.4585C5.31699 10.4585 3.8472 11.6522 2.9033 13.0394C1.97298 14.4066 1.50941 16.0145 1.28748 17.0457L2.7539 17.3613ZM2.94151 17.5418C2.86446 17.5418 2.81069 17.5098 2.78119 17.4755C2.7549 17.445 2.74343 17.41 2.7539 17.3613L1.28748 17.0457C1.05226 18.1386 1.92189 19.0418 2.94151 19.0418V17.5418ZM5.12134 17.5418H2.94151V19.0418H5.12134V17.5418ZM5.84179 18.5003C6.43766 16.4406 7.80827 14.0245 11.0444 13.4867L10.7985 12.007C6.73825 12.6818 5.07035 15.7694 4.40088 18.0834L5.84179 18.5003Z" fill="#222222"/>
</svg>
