<svg width="24" height="24" viewBox="0 0 24 24" fill="none" xmlns="http://www.w3.org/2000/svg">
<path d="M5.99811 9.2467L7.00441 11.0077C7.28126 11.4922 7.41968 11.7344 7.41968 12C7.41968 12.2656 7.28126 12.5078 7.00441 12.9923L5.99811 14.7533C4.75981 16.9203 4.14066 18.0039 4.62348 18.5412C5.1063 19.0785 6.24961 18.5783 8.53623 17.5779L17.0976 13.8323C18.8931 13.0468 19.7908 12.654 19.7908 12C19.7908 11.346 18.8931 10.9532 17.0976 10.1677L8.53624 6.4221C6.24962 5.42171 5.1063 4.92151 4.62348 5.45883C4.14066 5.99615 4.75981 7.07966 5.99811 9.2467Z" stroke="#33363F" stroke-width="1.5"/>
</svg>
