<svg width="24" height="24" viewBox="0 0 24 24" fill="none" xmlns="http://www.w3.org/2000/svg">
<path fill-rule="evenodd" clip-rule="evenodd" d="M18.1591 5.52832C17.7578 5.59971 17.1997 5.78368 16.3476 6.06772L8.3592 8.73051C7.07096 9.15992 6.14748 9.46832 5.49511 9.74317C4.80398 10.0344 4.60158 10.2186 4.54944 10.302C4.29586 10.7075 4.29586 11.2221 4.54944 11.6276C4.60158 11.7109 4.80398 11.8952 5.49511 12.1864C6.14748 12.4612 7.07096 12.7696 8.3592 13.199C8.38501 13.2076 8.41051 13.2161 8.4357 13.2245C8.87348 13.3701 9.21759 13.4846 9.51611 13.6793C9.83582 13.8878 10.1086 14.1606 10.3171 14.4803C10.5118 14.7788 10.6263 15.1229 10.7719 15.5607C10.7803 15.5859 10.7888 15.6114 10.7974 15.6372C11.2268 16.9255 11.5352 17.8489 11.8101 18.5013C12.1012 19.1924 12.2855 19.3948 12.3689 19.447C12.7743 19.7006 13.289 19.7006 13.6944 19.447C13.7778 19.3948 13.9621 19.1924 14.2533 18.5013C14.5281 17.8489 14.8365 16.9255 15.2659 15.6372L17.9287 7.64886C18.2127 6.79675 18.3967 6.2386 18.4681 5.83728C18.5019 5.64741 18.4998 5.54888 18.4933 5.50316C18.4475 5.49665 18.349 5.49454 18.1591 5.52832ZM18.5272 5.5127C18.5266 5.5132 18.5219 5.51193 18.515 5.50741C18.5243 5.50994 18.5278 5.5122 18.5272 5.5127ZM18.489 5.48145C18.4845 5.47454 18.4832 5.46987 18.4837 5.46926C18.4842 5.46865 18.4865 5.4721 18.489 5.48145ZM17.8964 4.0515C18.4268 3.95715 19.0718 3.94533 19.5614 4.435C20.0511 4.92467 20.0393 5.5696 19.9449 6.09999C19.8519 6.62305 19.6305 7.287 19.3708 8.06593L19.3517 8.1232L16.6889 16.1116L16.6777 16.1453C16.262 17.3925 15.9357 18.3714 15.6356 19.0837C15.3491 19.7636 15.016 20.3897 14.4898 20.7188C13.5977 21.2766 12.4656 21.2766 11.5735 20.7188C11.0473 20.3897 10.7142 19.7636 10.4277 19.0837C10.1276 18.3714 9.80136 17.3926 9.38567 16.1455L9.37436 16.1116C9.19095 15.5613 9.13631 15.4156 9.06076 15.2998C8.96598 15.1544 8.84198 15.0304 8.69665 14.9357C8.58082 14.8601 8.4351 14.8055 7.88486 14.6221L7.85091 14.6107C6.60382 14.1951 5.62497 13.8688 4.91273 13.5687C4.2328 13.2822 3.60671 12.9491 3.27766 12.4229C2.71979 11.5309 2.71979 10.3987 3.27766 9.50664C3.60671 8.98046 4.2328 8.64731 4.91273 8.36085C5.62498 8.06077 6.60385 7.73448 7.85097 7.31878L7.88486 7.30748L15.8732 4.64469L15.9305 4.6256C16.7094 4.36591 17.3734 4.14455 17.8964 4.0515Z" fill="#33363F"/>
</svg>
