<svg width="24" height="24" viewBox="0 0 24 24" fill="none" xmlns="http://www.w3.org/2000/svg">
<path d="M9.58231 6.44894L10.2784 6.72816L9.5823 6.44895L9.54833 6.53364C9.33656 7.0616 9.19785 7.40494 9.06436 7.65889C8.93891 7.89756 8.8468 7.99901 8.75868 8.06453C8.67056 8.13004 8.54688 8.18903 8.2822 8.24042C8.00055 8.29511 7.63181 8.32905 7.06523 8.37979L6.86588 8.39765C6.84568 8.39946 6.82556 8.40126 6.80551 8.40305C5.9547 8.47921 5.23404 8.54371 4.70611 8.6683C4.18623 8.79098 3.55155 9.03898 3.32179 9.7221C3.09204 10.4052 3.44788 10.9864 3.78796 11.3983C4.13331 11.8166 4.66851 12.3034 5.30038 12.8782L5.34523 12.919L5.79253 13.326C6.14118 13.6432 6.36727 13.8498 6.52952 14.0253C6.68243 14.1907 6.74156 14.2904 6.77451 14.3747C6.79208 14.4196 6.80668 14.4656 6.81823 14.5125C6.83989 14.6004 6.849 14.7159 6.81938 14.9392C6.78796 15.1762 6.72226 15.4753 6.62016 15.9354L6.55832 16.2142L6.54831 16.2593C6.37424 17.0437 6.23026 17.6926 6.17433 18.1882C6.12305 18.6426 6.10217 19.2542 6.50359 19.7011C6.71902 19.941 6.99901 20.1137 7.31004 20.1986C7.88961 20.3567 8.42678 20.0636 8.80982 19.8139C9.22763 19.5414 9.74287 19.1216 10.3658 18.614L10.4016 18.5848C10.8417 18.2262 11.1319 17.9907 11.3717 17.8304C11.6003 17.6775 11.7274 17.6322 11.8258 17.6165C11.9412 17.5981 12.0588 17.5981 12.1742 17.6165C12.2726 17.6322 12.3997 17.6775 12.6283 17.8304C12.8681 17.9907 13.1583 18.2262 13.5984 18.5848L13.6342 18.614C14.2571 19.1216 14.7724 19.5414 15.1902 19.8139C15.5732 20.0636 16.1104 20.3567 16.69 20.1986C17.001 20.1137 17.281 19.941 17.4964 19.7011C17.8978 19.2542 17.8769 18.6426 17.8257 18.1882C17.7697 17.6926 17.6258 17.0437 17.4517 16.2593L17.4417 16.2142L17.3798 15.9354C17.2777 15.4753 17.212 15.1762 17.1806 14.9392C17.151 14.7159 17.1601 14.6004 17.1818 14.5125C17.1933 14.4656 17.2079 14.4196 17.2255 14.3747C17.2584 14.2904 17.3176 14.1907 17.4705 14.0253C17.6327 13.8498 17.8588 13.6432 18.2075 13.326L18.6548 12.919L18.6996 12.8782C19.3315 12.3034 19.8667 11.8166 20.212 11.3983C20.5521 10.9864 20.908 10.4052 20.6782 9.7221C20.4485 9.03898 19.8138 8.79098 19.2939 8.6683C18.766 8.54371 18.0453 8.47921 17.1945 8.40305L17.1341 8.39765L16.9348 8.37979C16.3682 8.32905 15.9994 8.29511 15.7178 8.24042C15.4531 8.18903 15.3294 8.13004 15.2413 8.06453C15.1532 7.99901 15.0611 7.89756 14.9356 7.65889C14.8021 7.40494 14.6634 7.0616 14.4517 6.53364L14.4177 6.44895L13.7216 6.72815L14.4177 6.44895L14.395 6.39235C14.0496 5.53117 13.7601 4.80941 13.473 4.30889C13.1969 3.8275 12.7564 3.25 12 3.25C11.2436 3.25 10.8031 3.8275 10.527 4.30889C10.2399 4.80941 9.95041 5.53116 9.60501 6.39233L9.58231 6.44894Z" fill="black" stroke="#222222" stroke-width="1.5"/>
</svg>
