<svg width="24" height="24" viewBox="0 0 24 24" fill="none" xmlns="http://www.w3.org/2000/svg">
<path d="M5 9C5 7.89543 5.89543 7 7 7H17C18.1046 7 19 7.89543 19 9V17C19 18.1046 18.1046 19 17 19H7C5.89543 19 5 18.1046 5 17V9Z" stroke="#222222" stroke-width="1.5" stroke-linecap="round" stroke-linejoin="round"/>
<path d="M9 7V5C9 3.89543 9.89543 3 11 3H13C14.1046 3 15 3.89543 15 5V7" stroke="#222222" stroke-width="1.5" stroke-linecap="round" stroke-linejoin="round"/>
<path d="M10 11H14" stroke="#222222" stroke-width="2" stroke-linecap="round" stroke-linejoin="round"/>
<rect x="7" y="19" width="3" height="3" rx="0.5" fill="#222222"/>
<rect x="14" y="19" width="3" height="3" rx="0.5" fill="#222222"/>
</svg>
